<svg id="Layer_1" data-name="Layer 1" xmlns="http://www.w3.org/2000/svg" viewBox="0 0 92.34 37.08"><defs><style>.cls-1,.cls-2{fill:#273750;}.cls-1{opacity:0.8;}</style></defs><title>logo</title><path class="cls-1" d="M10.35,26.37s9-3.45,9.51-4.25a17.3,17.3,0,0,1,3.73-4c1.36-.84,3.74-.84,5.37-2S39.59,5,39.59,5a10.58,10.58,0,0,0,3.17,2.8c1.73.84,7.79,4.94,9.8,5.92a11.8,11.8,0,0,1,3.49,2.84l3.22.05,4.15-3.68s3.17,2.66,5,4.38,3.08,3,4.29,3.55S77.23,23,77.23,23s-.51.7,2.56,1.92,8.49,3.73,8.49,3.73a16.09,16.09,0,0,1-2.7-.33c-1.17-.28-12-4.29-12.5-4S74,28,74,28a50.56,50.56,0,0,0-4.47-4c-.94-.51-2.1-4.19-3.59-5.08s-2.8-1.54-3.13-1.4a12.52,12.52,0,0,0-2.47,3.22,7.87,7.87,0,0,1-.14,2.14c-.14.14-5.69,4.62-5.69,4.62s2.94-3.87,3.17-5.32,0-1.91-.79-1.81-1.54.14-1.54.14A3.13,3.13,0,0,0,54.42,18c-1-.89-4.29-2.8-4.75-3.22a5.29,5.29,0,0,0-1.22-.74l2.66,4.19a9.42,9.42,0,0,1-3.73-1.44c-1.49-1.12-5-5.41-5.46-5s-.28,2,0,2.75,1.4,2.66,1.4,2.84-1.54,2.71-1.08,4a13.89,13.89,0,0,1,.61,3.12s-1.4-1.68-1.68-1.72.47-3.59-.05-4.85a6.58,6.58,0,0,0-1.58-2.19l-.33-4.81s-1.21,0-1.86,1.63-2.2,4.29-2.29,4.9a22.71,22.71,0,0,1-.7,3.69c-.23.23-3,1.49-3.78,2s-2.05,1.12-2.05,1.12,2.71-2.56,3.08-2.75-.05-2.28,0-3.12.09-1.22.09-1.22A24.56,24.56,0,0,1,28.77,20c-.42.09-3.26-1.11-4.34-.32S22,23.24,21.64,23.38s-6.91,2.9-8.54,3.18A5.34,5.34,0,0,1,10.35,26.37Z" transform="translate(-3.86 -5.01)"/><path class="cls-2" d="M3.86,30.43H5.4V41.76l-1.53.33Zm.81,0H8.89v1.33l-4.21.11Zm0,5.07,3.8-.35v1.34c-1.27.14-2.53.29-3.8.45Zm0,5c1.39-.27,2.79-.52,4.18-.76v1.33c-1.4.28-2.79.56-4.18.87Z" transform="translate(-3.86 -5.01)"/><path class="cls-2" d="M16.21,34.41c.61-1.38,1.23-2.72,1.84-4H19.7c-.89,1.6-1.78,3.26-2.67,5q-1,2.19-2,4.53l-1.64.28C14.3,38.18,15.25,36.25,16.21,34.41Zm.07,1.25L16,35.33c-.84-1.57-1.67-3.21-2.51-4.92h1.66c.54,1.28,1.09,2.53,1.63,3.73l.28.37c.9,1.64,1.79,3.2,2.68,4.7l-1.64.24C17.51,38.22,16.9,37,16.28,35.66Z" transform="translate(-3.86 -5.01)"/><path class="cls-2" d="M25,30.39h1.54l-.1,8-1.54.18C24.91,35.82,25,33.1,25,30.39Zm.8,3.91,2.2-.11a1.43,1.43,0,0,0,.54-.13.73.73,0,0,0,.35-.29.75.75,0,0,0,.12-.43l0-1.17a.78.78,0,0,0-.11-.44.79.79,0,0,0-.34-.28,1.45,1.45,0,0,0-.54-.09l-2.2,0v-1H28a4.14,4.14,0,0,1,1.4.2,1.85,1.85,0,0,1,.88.59,1.37,1.37,0,0,1,.3.93v1.2a1.5,1.5,0,0,1-.33.93,2,2,0,0,1-.9.63,4.6,4.6,0,0,1-1.41.3l-2.17.14Z" transform="translate(-3.86 -5.01)"/><path class="cls-2" d="M36.16,30.38H37.7c0,2.34-.05,4.68-.07,7l-1.55.09Zm.76,6.18c1.35-.07,2.7-.13,4.06-.18v.86c-1.35,0-2.71.12-4.06.21Z" transform="translate(-3.86 -5.01)"/><path class="cls-2" d="M47.37,36.93a2.06,2.06,0,0,1-1-.56,1.28,1.28,0,0,1-.34-.9V32a1.29,1.29,0,0,1,.35-.9,2.09,2.09,0,0,1,1-.58A5.58,5.58,0,0,1,49,30.31a5.45,5.45,0,0,1,1.56.19,2.15,2.15,0,0,1,1,.57,1.31,1.31,0,0,1,.35.91v3.47a1.28,1.28,0,0,1-.34.9,2.25,2.25,0,0,1-1,.57,6,6,0,0,1-1.58.2A5.53,5.53,0,0,1,47.37,36.93Zm2.32-.77a1,1,0,0,0,.46-.27.65.65,0,0,0,.16-.42V32a.65.65,0,0,0-.16-.42,1,1,0,0,0-.46-.27,2.32,2.32,0,0,0-.74-.1,2.6,2.6,0,0,0-.74.1.94.94,0,0,0-.46.27.6.6,0,0,0-.16.43v3.52a.6.6,0,0,0,.16.42.94.94,0,0,0,.46.27,2.68,2.68,0,0,0,.74.09A2.39,2.39,0,0,0,49.69,36.16Z" transform="translate(-3.86 -5.01)"/><path class="cls-2" d="M57.44,30.37H59L59,37.23l-1.55-.06C57.47,34.91,57.45,32.64,57.44,30.37Zm.74,3.09,2.16,0a2.48,2.48,0,0,0,.7-.07,1,1,0,0,0,.44-.25.54.54,0,0,0,.14-.41v-.72a.65.65,0,0,0-.16-.43.93.93,0,0,0-.44-.28,2.11,2.11,0,0,0-.7-.1H58.17v-.86h2a5.88,5.88,0,0,1,1.61.19,2.2,2.2,0,0,1,1,.55,1.19,1.19,0,0,1,.36.87v.83a1.23,1.23,0,0,1-.34.88,2.06,2.06,0,0,1-1,.53,5.92,5.92,0,0,1-1.6.15l-2-.06Zm2,.69L61.64,34c.63,1.15,1.27,2.31,1.9,3.5l-1.69-.1C61.3,36.28,60.74,35.21,60.19,34.15Z" transform="translate(-3.86 -5.01)"/><path class="cls-2" d="M69,30.38h1.54l.1,7.66-1.55-.14Zm.8,0H74v1l-4.22-.06Zm0,3.35,3.82.17,0,1-3.83-.22Zm0,3.29c1.41.12,2.82.24,4.23.38v1c-1.4-.16-2.81-.31-4.22-.44Z" transform="translate(-3.86 -5.01)"/><path class="cls-2" d="M79.38,30.39h1.54c0,3,.07,5.94.11,8.91l-1.54-.22C79.45,36.19,79.42,33.29,79.38,30.39Zm.77,4,2.15.14a1.72,1.72,0,0,0,.7-.07.87.87,0,0,0,.43-.31.93.93,0,0,0,.15-.54v-1a1.09,1.09,0,0,0-.16-.58,1,1,0,0,0-.44-.38,1.85,1.85,0,0,0-.7-.14l-2.15,0v-1.1h2a4.52,4.52,0,0,1,1.6.25,2.18,2.18,0,0,1,1,.75,2.05,2.05,0,0,1,.36,1.17v1.12a2,2,0,0,1-.34,1.18,1.85,1.85,0,0,1-1,.67,4.42,4.42,0,0,1-1.59.11l-2-.17Zm2,1,1.44-.17c.63,1.55,1.27,3.16,1.9,4.82l-1.67-.28C83.27,38.23,82.71,36.78,82.16,35.36Z" transform="translate(-3.86 -5.01)"/><path class="cls-2" d="M91.9,41a2.78,2.78,0,0,1-1-1,2.94,2.94,0,0,1-.34-1.41V38l1.53.22v.49a1.4,1.4,0,0,0,.34,1,1.67,1.67,0,0,0,1,.49,1.13,1.13,0,0,0,.93-.15,1.08,1.08,0,0,0,.33-.89v-1a1.27,1.27,0,0,0-.21-.72,2,2,0,0,0-.52-.53,9.55,9.55,0,0,0-.86-.52h0l0,0-.11-.06a10.88,10.88,0,0,1-1.2-.74,3,3,0,0,1-.8-.88,2.58,2.58,0,0,1-.34-1.32v-.61a2.5,2.5,0,0,1,.32-1.33,2.12,2.12,0,0,1,1-.83,3.72,3.72,0,0,1,1.54-.28,3.4,3.4,0,0,1,1.5.3,2.14,2.14,0,0,1,.93.93,3.31,3.31,0,0,1,.31,1.51v.61l-1.52-.1V33a1.3,1.3,0,0,0-.31-.94,1.2,1.2,0,0,0-.9-.35,1.36,1.36,0,0,0-1,.27,1,1,0,0,0-.33.83v.67a1.14,1.14,0,0,0,.21.7,1.74,1.74,0,0,0,.52.49,8.9,8.9,0,0,0,.85.48l.11.06.11.06.08,0a.2.2,0,0,0,.08,0,9.24,9.24,0,0,1,1.11.69,2.52,2.52,0,0,1,.72.9,3.06,3.06,0,0,1,.3,1.43v1.07a2.77,2.77,0,0,1-.33,1.44,1.58,1.58,0,0,1-.94.72,3,3,0,0,1-1.5,0A4.39,4.39,0,0,1,91.9,41Z" transform="translate(-3.86 -5.01)"/></svg>
