<svg id="Layer_1" data-name="Layer 1" xmlns="http://www.w3.org/2000/svg" viewBox="0 0 64.06 45.79"><defs><style>.cls-1{fill:#8dcede;}.cls-1,.cls-2{fill-rule:evenodd;}.cls-2{fill:#1d262d;}.cls-3{fill:#fff6ea;}</style></defs><title>logo</title><path class="cls-1" d="M67.13,30.15a1,1,0,0,0-.88-.48c-1.52.13-2.94-1.17-4.11-2.62a14.5,14.5,0,0,0-1.73-2.87c-1.52-2.18-2.93-4.47-4.55-6.58a1.19,1.19,0,0,0-1.51-.32c0-.32.06-.64.08-1a.94.94,0,0,0-.73-1l.06-.29c.22-1.28-1.7-1.85-2-.55a33.51,33.51,0,0,1-1.72,5.06A.8.8,0,0,0,49,19.3c-1.81,1.08-2.78,4.19-4.33,5.89.48-1,1-2,1.38-3.1a.8.8,0,0,0-.32-1,1.13,1.13,0,0,0,0-.18c.1-.8-.86-1.08-1.43-.82a12.29,12.29,0,0,0-3,2,7.15,7.15,0,0,0,.47-2.67,1,1,0,0,0-1.45-.84l-.39.22q.21-.53.45-1.05a.92.92,0,0,0-.22-1.16,20.27,20.27,0,0,0,1.63-6.67.92.92,0,0,0-1.09-1l.12-.32c.35-1-1.28-1.73-1.75-.79a.73.73,0,0,0-.42.58c0,.19-.05.37-.08.55a24.94,24.94,0,0,0-1.38,3.5c-.35.83-.7,1.65-1,2.49a1.4,1.4,0,0,1-.1.16,1,1,0,0,0-.71.42c-1.27,1.82-2.65,3.48-3.78,5.39A.94.94,0,0,0,30,20.55a15.44,15.44,0,0,0-1.38,2.24,12.47,12.47,0,0,0,1-4.64A1.07,1.07,0,0,0,28,17.24c-2,1.36-3,3.36-4.22,5.35q-.2.32-.42.63c-1.84,2.1-3.59,4.29-5.45,6.38-1,1.1.58,2.69,1.63,1.62.46-.48.92-1,1.37-1.45a.94.94,0,0,0,.62-.24,11.88,11.88,0,0,0,2.31-2.74c.82-1.07,1.61-2.17,2.43-3.24a12.79,12.79,0,0,0-.52,2A1,1,0,0,0,27,26.76a2.59,2.59,0,0,0,.4-.09c-.1.16-.19.32-.28.48-.45.8.51,2,1.34,1.35a11.82,11.82,0,0,0,2.07-2.05,18.69,18.69,0,0,0-.77,1.86.86.86,0,0,0,0,.55,1,1,0,0,0,1.49,1.22c2.67-1.59,4.31-4.3,6.27-6.62l0,0,0,0a16.67,16.67,0,0,1,2-2c-1.14,3.34-4.84,6-6.36,9.05-.45.9.51,2.11,1.47,1.47,3.34-2.23,5.26-6,8.26-8.6a28,28,0,0,0-2.4,3.74c-.36.89.77,1.41,1.44,1.1l.11-.06a1,1,0,0,0,.24.15,11,11,0,0,0-1,1.3l-1.69,2a.93.93,0,0,0,1.32,1.32A16.89,16.89,0,0,0,42,31.68a1.09,1.09,0,0,0,.42-.25,8.18,8.18,0,0,1,1.33-1.05,1.15,1.15,0,0,0,.12.25,16.31,16.31,0,0,0-1,1.68,1.11,1.11,0,0,0,1.5,1.5,10.12,10.12,0,0,0,3.29-3,39.45,39.45,0,0,0,4.27-1,1.1,1.1,0,0,0,1.37,1,3.2,3.2,0,0,0,2.22-2c2.07-.3,4.29,1.06,6.11,1.83a18.42,18.42,0,0,0,4.86,1.41C67.61,32.21,67.91,30.66,67.13,30.15ZM35,19.48a1,1,0,0,0,.18.45A24.74,24.74,0,0,0,33.31,22C33.84,21.14,34.4,20.31,35,19.48Zm19.51,2.7c.09-.22.17-.45.26-.67a1,1,0,0,0-1-1.35c.11-.43.22-.85.31-1.29.71,1,1.37,2,2,3a1.24,1.24,0,0,0-.42.57,5,5,0,0,0-.2.76,8,8,0,0,0-.83,1.65A6.74,6.74,0,0,0,54.49,22.18Zm-8.63,6a.94.94,0,0,0-.53-.31c.27-.26.54-.52.82-.77a1,1,0,0,0,.49.29C46.37,27.63,46.11,27.89,45.86,28.16Zm5.24-.95a.89.89,0,0,0,.9-.33,6.77,6.77,0,0,0,.49-.6c-.08.41-.17.82-.25,1.22l-1.4.4C50.94,27.67,51,27.45,51.1,27.21Zm7.33-.81.59.88-.57-.22v0C58.45,26.82,58.44,26.61,58.43,26.4Z" transform="translate(-7.97 -2.11)"/><path class="cls-2" d="M70.4,32.93a10.24,10.24,0,0,0-.33-1c-.14-.31-.34-.6-.51-.91.3-.19.4.06.56.13a1.82,1.82,0,0,0,.44.17.4.4,0,0,0,.31-.11.36.36,0,0,0,0-.32,19,19,0,0,0-1.1-1.56,6.19,6.19,0,0,1-.89-2.13c.45.24.73.41,1,.55a.33.33,0,0,0,.32-.07c.09-.11.18-.32.13-.41a3.46,3.46,0,0,0-.69-.95,3.15,3.15,0,0,1-1-2,9.54,9.54,0,0,0-.27-1.29,9.27,9.27,0,0,0-.35-.94c-.36-.09-.43.13-.48.3s-.1.63-.17.94a5.53,5.53,0,0,1-.24.91.35.35,0,0,1-.52.13,1.7,1.7,0,0,1-.51-.49c-.39-.69-.78-1.38-1.12-2.11a.92.92,0,0,0-.84-.61c-.4.35.22,1.06-.41,1.34a2,2,0,0,1-.42,1.29c-.25-.46-.49-.91-.77-1.34A39.94,39.94,0,0,1,60.43,19a1,1,0,0,0-.19-.36.42.42,0,0,0-.72.45c.06.13.13.25.19.38v.05a2.57,2.57,0,0,0-1.07.16c-.31-.43-.65-.87-1-1.34a35.87,35.87,0,0,0-2.24-3.1,15.72,15.72,0,0,1-1.29-2,7.36,7.36,0,0,0-2-2.27.68.68,0,0,0-.71.42c-.13.25-.25.5-.38.74a13.1,13.1,0,0,0-1.49,2.94l-.14.27a5.1,5.1,0,0,0-.62,1.44s0,.1-.07.14l-.07.13A27.57,27.57,0,0,0,47,14.77c-.91-1.28-1.75-2.64-2.78-3.82a12.72,12.72,0,0,1-2-3.75c-.24-.78-.55-1.54-.85-2.29-.17-.43-.54-.78-.75-1.19s-.34-.9-.55-1.33a.57.57,0,0,0-.45-.28.66.66,0,0,0-.45.33c-.35.81-.68,1.62-1,2.44-.16.39-.31.79-.47,1.2l-.07,0-.24,0a.73.73,0,0,0-.81.36c-1.29,3.09-2.68,6.19-4.12,9.23l-.17-.1c-.06.19-.13.37-.2.56s-.15.44-.24.66a6.75,6.75,0,0,1-.93-1.81,4.15,4.15,0,0,0-.78-1.52l-.06-.12-.11,0a1.15,1.15,0,0,0-.25-.12h0a1.1,1.1,0,0,1-.18-.14.86.86,0,0,1-.13-.14c-.07.12-.16.23-.23.34l-.31.42a15.19,15.19,0,0,1-1.36,1.52,15.6,15.6,0,0,1-1.35,2.34l-.3.42-.24.32c-.2.25-.4.49-.62.73a13,13,0,0,1-1,1c-1.44,1.89-2.92,3.74-4.45,5.59a1,1,0,0,1-1.27-.44c-.25,0-.29-.26-.37-.49.22.26.4.45.5.55s.23,0,.18-.14a10.25,10.25,0,0,0-.67-1.22c0-.12,0-.24,0-.36.56.69,1.22,1.26,1.6,1.23a.1.1,0,0,0,.1-.14,6.38,6.38,0,0,0-1.22-1.63c-.15-.19-1.16-1.47-1-1.67s-.08-.36-.24-.3a.43.43,0,0,0-.17.12h-.05a.68.68,0,0,0-.51.73c-.22,1.06-.88,2-.84,3.14l.71.05a.89.89,0,0,1-.46,1.14,1.34,1.34,0,0,1-.68-1.49,1.39,1.39,0,0,0-.17-.8c-.29-.74-.62-1.46-.94-2.19-.43.12-.52.49-.6.82a5.32,5.32,0,0,1-1,2c.07.33.34.55.18.92-.09.21,0,.51.06,1l-1,.87c.06.37.25.38.46.33a5.8,5.8,0,0,0,.63-.23,2,2,0,0,1-.55,1.2c-.22.32-.48.6-.73.91l.51.28c-.23.26-.44.48-.64.69l.29.39c-.1.1-.16.22-.26.26a3.38,3.38,0,0,0-1.65,1.11c-.12.18-.5.18-.77.26L8,32.65s0,.07-.07.18c.65.44,1.43.26,2.13.4a2.46,2.46,0,0,0,1.9-.77,2,2,0,0,1,.27.07l.18.09c-.37.28-.73.56-1.07.86a.21.21,0,0,0-.29,0c-.35.27-.33.28-.36.73a.27.27,0,0,0,.45.18,7.89,7.89,0,0,1,1.12-1l.09.06c.07.35.41.54,1,.38a12.12,12.12,0,0,0,2.32-1.28.58.58,0,0,0,.16,0l.45-.23a1.32,1.32,0,0,1,.33-.08v.68a.52.52,0,0,0,.66.48,5.81,5.81,0,0,0,.9-.45,1.37,1.37,0,0,0,.93-.05c.16-.07.38,0,.57.07h0a2.27,2.27,0,0,1-.7.27c-.42.09-.3.82.12.76a3.4,3.4,0,0,0,1.17-.42.63.63,0,0,0,.32.09c1.27,0,2.26-1.07,3-1.93a23.3,23.3,0,0,0,2.18-3.06.24.24,0,0,0,.26,0c2.14-1.31,3.19-3.58,4.11-5.83.24-.45.47-.9.69-1.36a6.65,6.65,0,0,0,.27-.61.23.23,0,0,0,.12-.17c0-.1,0-.2.08-.3l.21-.53c.22-.34.44-.68.65-1a.57.57,0,0,0,.29-.49l.32-.59c1.09-1.16,1.49-2.85,2.15-4.3.52-1.15,1.11-2.28,1.65-3.43l.06-.14.11.07c-.12.18-.24.36-.38.54a.45.45,0,0,0,.11.68c.48.31-.11,1.64-.1,2.11a.12.12,0,0,0,.21.08,2.59,2.59,0,0,0,.63-2.56c.17-.24.33-.49.51-.72a.44.44,0,0,0-.19-.72,9.86,9.86,0,0,0,.56-1.52.21.21,0,0,0-.11-.26c.06-.14.11-.29.17-.43a2.75,2.75,0,0,1,.17-.29,6.87,6.87,0,0,0,.75-2.13A1.45,1.45,0,0,1,39.65,4a6.31,6.31,0,0,0,.46.83l.08.08c.54,1.11,1.06,2.23,1.57,3.35a7.41,7.41,0,0,0,.89,2.27c.89,1.65,1.84,3.27,2.8,4.88.67,1.13,1.39,2.23,2.09,3.34-.24.32-.49.64-.73,1a3.84,3.84,0,0,0,0-.76c0-.13-.2-.35-.28-.34-.74.1-1-.47-.93-.94A2.18,2.18,0,0,0,45,16.13a2.76,2.76,0,0,0-.28-.39A13.53,13.53,0,0,1,42.24,11a4.53,4.53,0,0,0-.39-.87.52.52,0,0,0-.39-.16c-.08,0-.17.15-.22.25a3,3,0,0,0-.09.44,2.07,2.07,0,0,0-.49-.46.47.47,0,0,0-.43,0,.6.6,0,0,0-.18.39.59.59,0,0,0,.1.34c.6.91.73,2,1.27,2.93a2.45,2.45,0,0,1-.2.18c-.51.33-.54.36-.4.83s.33,1,.51,1.47c.09.26.19.51.28.75-.32.38-.63.26-1,.14-.6-.21-.92.11-.75.73s.38,1.22.59,1.9c-.15.06-.37.09-.48.21a1.07,1.07,0,0,0-.3.6,2.07,2.07,0,0,0,.21.8c.22.51.48,1,.72,1.52A2.76,2.76,0,0,1,41,24.32a2.51,2.51,0,0,0,.36.94c-.24.49-.46.94-.69,1.43-.4-.17-.8-.37-1.21-.51a.81.81,0,0,0-.55.06c-.24.14-.23.39-.13.64l.34.8-.36.06c-.73,0-.85.18-.72.86.05.23.13.46.18.66-.15.74-.82.53-1.35.77-.06.28-.13.62-.22,1a1,1,0,0,1-.27.15,2.37,2.37,0,0,0-1.31.53c-.06.05-.16.12-.2.1-.65-.26-1.19.24-1.82.23a4.93,4.93,0,0,0-2.4.67l.3-.18a2.4,2.4,0,0,0,.71-.44h0s0,0,0,0h0a.06.06,0,0,0,0,0h0v0s0,0,0,0h0a.14.14,0,0,0-.19-.09c-.31.05-.61.13-.91.2a.8.8,0,0,1-.59-.57.22.22,0,0,0-.32-.12l0,0a1.07,1.07,0,0,0-.14-.39,1.1,1.1,0,0,0-2,.49.31.31,0,0,0-.17,0l-.27,0a.26.26,0,0,0-.4-.06l-.44.32a4.52,4.52,0,0,0-1.2.79c-.47.42.29,1.16.71.68a5.11,5.11,0,0,1,.42-.39,1.27,1.27,0,0,0,0,.28.5.5,0,0,0,.65.47,2.93,2.93,0,0,0,.85-.49,2,2,0,0,0,.79.07.48.48,0,0,0,.59.34,7.17,7.17,0,0,0,1-.4l-.13.08c-.05,0-.05.13-.07.22a4,4,0,0,0,2.1-.28,3.77,3.77,0,0,1,2.46-.19,2.61,2.61,0,0,0,1.28-.13c.73-.19,1.44-.46,2.16-.7a1.27,1.27,0,0,0,.39-.26c.26-.25.49-.52.76-.77a1.09,1.09,0,0,0,.47-.83.24.24,0,0,0,.13.2l.11.06a.22.22,0,0,0,.31-.26c-.05-.18.15-.49.44-.81h0a.48.48,0,0,0,.53,0A3.66,3.66,0,0,0,42,28.61a.57.57,0,0,0,.5-.1.53.53,0,0,0,.16-.67,14.28,14.28,0,0,0,2.5-3.72l.07-.1L48,20.26a5.06,5.06,0,0,0,.75-1.34.56.56,0,0,0,.4-.67c0-.11-.07-.22-.11-.33l0-.09a12.28,12.28,0,0,0,2.08-4l.71-1.33a3.06,3.06,0,0,1,.21-.29,2.79,2.79,0,0,1,1.21,1.34c.33.5.62,1,.93,1.54a2.11,2.11,0,0,0,.33.49,36.7,36.7,0,0,1,3.6,4.92c.1.13.17.28.26.41s.33.37.52.34a32.3,32.3,0,0,0,3.41,4.31c1,1.14,2,2.26,3,3.37a17,17,0,0,0,2.15,3.3c-.3.25-.41-.13-.61-.16a2.7,2.7,0,0,1-.66-.27,3.54,3.54,0,0,0-.41-.26A2.23,2.23,0,0,1,64.29,30a3.05,3.05,0,0,0-.58-.91,45.76,45.76,0,0,1-3.11-4.68,5.27,5.27,0,0,0-.63-.86.42.42,0,0,0-.42,0,.46.46,0,0,0-.15.39,2.07,2.07,0,0,0,.23.56c-.16.18-.39.33-.44.54a1.08,1.08,0,0,0,.08.68,6.56,6.56,0,0,0,.51.94,2.67,2.67,0,0,1,.51,1.11,22.67,22.67,0,0,1-1.7-1.66c-.45-.46-.89-.92-1.36-1.36s-.63-.41-1,.29l-.1.11a1.33,1.33,0,0,1-.82-.92c.69-.1.69-.1,1.22-.67a3.88,3.88,0,0,0,.48.3c.38.17.56.1.78-.28a3.1,3.1,0,0,1,.29-.5c.48-.55.51-.66.1-1.18-.27-.35-.59-.65-.86-1-.95-1.18-1.89-2.38-2.83-3.56-.1-.12-.21-.23-.3-.32-.32,0-.39.24-.33.44a5.57,5.57,0,0,0,.42,1c.33.6.69,1.17,1.07,1.81a2.89,2.89,0,0,1-.48.64.77.77,0,0,0-.28,1c.1.3.21.59.32.88-.19.33-.44.06-.65.09-.39.05-.62.27-.53.62a4.74,4.74,0,0,0,.37.87,4.94,4.94,0,0,0,.3.49c-.25.31-.55.19-.8.21s-.76.17-.86.53-.57.66-.73,1.1c.08.29.18.59.26.86,0,.07,0,.13-.07.13-.65.15-.61.64-.46,1.25l-.59-.25A1.12,1.12,0,0,0,49.7,29c.1.3.2.63.31.93-.11.09-.17.16-.23.17-.53.11-1.13-.09-1.55.46-.09.11-.38.08-.57.1-.39,0-.78,0-1.18,0,0,.58.74.3.81.76h0l-.36,0a5.44,5.44,0,0,0-2.19.54.54.54,0,0,0-.58-.23c-.37.06-1.71.72-2,.32a.43.43,0,0,0-.57-.14c-.17.1-.34.18-.51.26a.31.31,0,0,0-.43-.38,4.28,4.28,0,0,0-1.4.95.48.48,0,0,0,.47.78,10.59,10.59,0,0,0,1.92-.74c.5.63,1.29.3,2.09.07a.64.64,0,0,0,.75.43A7,7,0,0,0,46,32.57c0,.11-.06.23-.09.37s.08.05.1,0a6.32,6.32,0,0,1,3.27-.43c.25,0,.5.21.76.31s.69.12.84-.2c.39-.82,1.18-1,1.92-1.4l.36.24c.65.41.72.39,1.25-.37l.58.35c.3.2.61.27.84-.06a.69.69,0,0,1,.87-.19c1,.32,2.06.47,3.07.87a30.77,30.77,0,0,0,4.37,1.24,4.08,4.08,0,0,0,2-.06c.42-.12.85-.2,1.37-.32.91.35,1.91.74,2.91,1.11a4.29,4.29,0,0,0,1,.23c.16,0,.34-.11.53-.17C71.75,33.25,70.9,33.34,70.4,32.93Zm-57-6.11a.76.76,0,0,1-.06-.16s.06-.06.06-.06l.15.12Zm.17-1.9a.41.41,0,0,0-.05-.09l.15-.09s0,.05.07.08Zm.52,7.63a1.53,1.53,0,0,0-.35.19l.34-.27a.53.53,0,0,1,.43-.11Zm5-5.88.08-.05.06.05c-.1.11-.2.23-.31.34Zm-1.88.43s.08.06.08.08,0,0,0,.05l-.1.12,0,0Zm6.36,3c-.3.36-.69.87-1.12,1.31A3,3,0,0,1,23.7,30Zm.84-2.71a.94.94,0,0,1-.28.1c0-.1-.08-.24,0-.3s.19-.05.29-.06.07,0,.1.06S24.5,27.33,24.45,27.36Zm2,.12a.34.34,0,0,0-.22-.07.61.61,0,0,1,.27,0Zm.83-6.93c-1-.42-1.17-.22-1.32.83a1,1,0,0,1-.28.14.49.49,0,0,0-.4.63c.09.47.23.93.33,1.4.07.3.11.62.18,1.09a6.08,6.08,0,0,0-.57-.38c-.22-.11-.45,0-.44.21s.06.54.09.81a2.17,2.17,0,0,1-1.5,1c0,.43-.07.9-.11,1.45-.31.18-.8.28-.87.8s-.12.87-.2,1.38a9,9,0,0,0-2,1.35,3.51,3.51,0,0,1-.59.42.25.25,0,0,0-.24-.1,7.78,7.78,0,0,1-1.72.06c0-.14,0-.28-.05-.42a.43.43,0,0,0-.64-.24l-.31.17a.15.15,0,0,0-.07-.05c.32-.4.62-.82.9-1.24.71-.83,1.48-1.62,2.25-2.4a25.07,25.07,0,0,0,3.18-4.39,42.91,42.91,0,0,0,3.68-5l.66-.9c.07,1.1.13,2.2.2,3.32C27.39,20.5,27.31,20.57,27.27,20.55ZM28,24.61c.11-.29.22-.57.35-.85s.24-.83.75-1c.11,0,.2-.33.2-.5a4.55,4.55,0,0,0-.13-.81l1-.67A7.35,7.35,0,0,1,28,24.61ZM30.4,20c-.35-.21-.14-.44-.13-.65s.08-.53,0-.68A6.65,6.65,0,0,0,28,16.51a.86.86,0,0,0-.23-.06h-.05A23.31,23.31,0,0,0,29,14.32c.29.62.58,1.25.86,1.89.36.83.71,1.68,1.11,2.63A4.29,4.29,0,0,1,30.4,20Zm-.93,12.41a.36.36,0,0,0,0-.09A1.17,1.17,0,0,0,29.6,32a1.07,1.07,0,0,0,.09.3Zm9.93-2.22s0-.07,0-.12a1.66,1.66,0,0,1,.13-.67h.1A1.57,1.57,0,0,0,39.4,30.15Zm3.93-6.48-.18-.24.12-.21c.07.07.18.14.2.23S43.38,23.6,43.33,23.67Zm2.15-2.41a41.73,41.73,0,0,1-3-4.52,4.5,4.5,0,0,1-.67-1.57,2.55,2.55,0,0,1,1.06,1.15,23,23,0,0,0,2.88,4.12C45.67,20.67,45.59,20.93,45.48,21.26Zm18.21,3.28,0-.08a.29.29,0,0,1,0-.09s.06,0,.09,0,.05.12.08.17Zm2.1,1.65c-.17-.14-.22-.16-.23-.19a12.49,12.49,0,0,0-.65-1.73s0-.16.09-.19a.23.23,0,0,1,.21,0c.33.34.65.69,1,1.1Zm1.57,1,0-.1.06-.08.08.05ZM48,31.52l-.15,0v-.07h.36s0,.06,0,.09Zm7.88-2.94c-.32-.45-.63-.91-1-1.35s-.49-1-1.15-1.15c-.11.24-.2.43-.42.88a7.72,7.72,0,0,1,.09-.94.39.39,0,0,1,.22-.25,1.25,1.25,0,0,1,1.36.44c.39.65.75,1.31,1.11,2C56.23,28.39,56.17,28.56,55.89,28.58Zm.8,1.19a.16.16,0,0,1-.09-.05.8.8,0,0,1-.08-.16h-.05a.41.41,0,0,1,0-.11.57.57,0,0,1-.08-.13s0,0,.06-.07a1.23,1.23,0,0,0,0,.2l0,.07s0,0,0,0a.21.21,0,0,1,.16,0S56.69,29.7,56.69,29.77ZM58.11,29,58,28.85l.17.1A.32.32,0,0,1,58.11,29Zm1.16,2.2c-.06-.17-.12-.35-.2-.53s-.22-.43-.3-.65-.29-.27-.06-.48A6.18,6.18,0,0,1,60,31.27C59.72,31.5,59.51,31.31,59.27,31.24ZM62,31.9a2.88,2.88,0,0,0-.73-1.63,1.2,1.2,0,0,1-.16-.4h0v0l-.13-.1.13-.06v.16l0,0v0c.41,0,.52.41.74.64a4.07,4.07,0,0,0,1.84,1.43c.09,0,.15.2.34.45Zm6.9.31c-.19-.19-.33-.34-.53-.56C68.93,31.72,68.93,31.72,68.9,32.21Z" transform="translate(-7.97 -2.11)"/><path class="cls-2" d="M13.22,34.41a2.51,2.51,0,0,1,.64.18,8,8,0,0,0,2.22.84,46.39,46.39,0,0,0,11.5,1.36,45.27,45.27,0,0,0,11.2-1.24c1.81-.44,3.63-.89,5.47-1.27A12.37,12.37,0,0,1,46.9,34c2.12,0,4.25.21,6.37.23a22.77,22.77,0,0,1,12.35,4.11c.77.5,1.53,1,2.28,1.54a2.67,2.67,0,0,1,.48.47.4.4,0,0,1-.24.62,7.53,7.53,0,0,1-.83.11,19,19,0,0,0-4.05,1c.28.23.47.41.68.56a8.53,8.53,0,0,1,3,4.14.83.83,0,0,1,0,.38,1.36,1.36,0,0,1-.16.35c-.15,0-.32,0-.42,0A13.78,13.78,0,0,0,61.9,46,48.85,48.85,0,0,0,53,45.11a44,44,0,0,0-11.35,1.12c-2,.47-4,.75-5.88,1.36a7.41,7.41,0,0,1-2.66.29q-4-.15-7.92-.33a17.11,17.11,0,0,1-5.75-1.33,27.5,27.5,0,0,1-4.93-2.58L12.13,42a2.73,2.73,0,0,1-.5-.46.45.45,0,0,1,.29-.71c.37,0,.76,0,1.12-.08a24.57,24.57,0,0,0,3.48-.86c.05-.37-.27-.47-.48-.62a8.49,8.49,0,0,1-3-4C13,35,13,35,13.22,34.41Z" transform="translate(-7.97 -2.11)"/><path class="cls-3" d="M24.65,42.24a15.75,15.75,0,0,1-2.43-.87v2.26a16.76,16.76,0,0,0,2.71.94v.67a16.25,16.25,0,0,1-3.51-1.33V37.67A16.47,16.47,0,0,0,24.79,39v.67a15.49,15.49,0,0,1-2.57-.91v2a16.87,16.87,0,0,0,2.43.87Z" transform="translate(-7.97 -2.11)"/><path class="cls-3" d="M28.7,45.76l-.8-1.42c-.32-.55-.53-.92-.72-1.3h0a11.87,11.87,0,0,1-.67,1.15c-.25.42-.5.83-.76,1.24-.3-.06-.61-.14-.92-.22.63-.88,1.27-1.81,1.91-2.77-.61-1.12-1.23-2.26-1.84-3.45.31.08.63.15.94.21.27.54.55,1.08.82,1.6s.41.78.58,1.13h0c.18-.35.34-.63.57-1s.57-.93.85-1.41h.93c-.64,1-1.27,2-1.9,3,.65,1.12,1.3,2.21,1.94,3.27C29.32,45.78,29,45.77,28.7,45.76Z" transform="translate(-7.97 -2.11)"/><path class="cls-3" d="M29.88,39.6c.39-.07.9-.15,1.54-.21a2.56,2.56,0,0,1,1.76.31,1.43,1.43,0,0,1,.54,1.22,2.08,2.08,0,0,1-.48,1.41,2.72,2.72,0,0,1-1.91.91,2.32,2.32,0,0,1-.65,0v2.5l-.8,0Zm.8,3a2.43,2.43,0,0,0,.67,0,1.51,1.51,0,0,0,1.57-1.51c0-.83-.59-1.13-1.48-1a3.62,3.62,0,0,0-.76.12Z" transform="translate(-7.97 -2.11)"/><path class="cls-3" d="M34.12,39.08l.8-.15v5.56c.89-.17,1.78-.37,2.67-.59v.68c-1.16.28-2.32.53-3.47.74Z" transform="translate(-7.97 -2.11)"/><path class="cls-3" d="M42.77,40.09a4,4,0,0,1-2.9,4c-1.65.42-2.81-.58-2.81-2.47a4,4,0,0,1,2.9-4C41.67,37.2,42.77,38.23,42.77,40.09Zm-4.85,1.32c0,1.34.73,2.35,2,2a3.06,3.06,0,0,0,2-3.11c0-1.24-.65-2.37-2-2A3,3,0,0,0,37.92,41.41Z" transform="translate(-7.97 -2.11)"/><path class="cls-3" d="M43.13,37a7.78,7.78,0,0,1,1.54-.48,2.2,2.2,0,0,1,1.81.15A1.34,1.34,0,0,1,47,37.81a2.06,2.06,0,0,1-1.18,1.8v0c.48.07.77.47.92,1.09a8.46,8.46,0,0,0,.48,1.64l-.83.13a7.18,7.18,0,0,1-.42-1.41c-.19-.83-.52-1.09-1.25-1l-.76.16V43l-.8.19Zm.8,2.65.82-.18A1.56,1.56,0,0,0,46.16,38c0-.81-.58-1.06-1.43-.89a4.54,4.54,0,0,0-.8.25Z" transform="translate(-7.97 -2.11)"/><path class="cls-3" d="M50.65,39.13c-.81,0-1.62.08-2.43.17v2.25a24.64,24.64,0,0,1,2.71-.17v.67a26,26,0,0,0-3.51.29V36.09a27.19,27.19,0,0,1,3.37-.28v.68a24.64,24.64,0,0,0-2.57.17v2q1.22-.15,2.43-.18Z" transform="translate(-7.97 -2.11)"/><path class="cls-3" d="M51.28,35.89a5.94,5.94,0,0,1,1.55,0,2.61,2.61,0,0,1,1.8.76,1.89,1.89,0,0,1,.5,1.29A1.31,1.31,0,0,1,54,39.26v0a2,2,0,0,1,.92,1.43,11.59,11.59,0,0,0,.48,1.82q-.42-.1-.84-.18a9.45,9.45,0,0,1-.41-1.56c-.19-.89-.52-1.28-1.25-1.37l-.76-.06v2.71l-.81,0Zm.81,2.87c.27,0,.55,0,.82.06.86.08,1.41-.28,1.41-1s-.58-1.27-1.44-1.36a3,3,0,0,0-.79,0Z" transform="translate(-7.97 -2.11)"/><path class="cls-3" d="M55.46,41.58a4.43,4.43,0,0,0,1.45.84c.82.29,1.3.09,1.3-.54s-.33-1.09-1.17-1.72c-1-.72-1.65-1.38-1.65-2.26s.8-1.53,2-1.06a3.66,3.66,0,0,1,1.38.91c-.08.18-.15.36-.22.55a3.5,3.5,0,0,0-1.19-.81c-.85-.32-1.18.12-1.18.54,0,.59.38,1,1.25,1.63A3.34,3.34,0,0,1,59,42.21c0,1-.71,1.38-2.19.86a5.25,5.25,0,0,1-1.59-.86C55.33,42,55.39,41.79,55.46,41.58Z" transform="translate(-7.97 -2.11)"/></svg>
